<svg width="58" height="58" viewBox="0 0 58 58" fill="none" xmlns="http://www.w3.org/2000/svg">
<mask id="mask0_2029_1702" style="mask-type:luminance" maskUnits="userSpaceOnUse" x="0" y="0" width="58" height="58">
<path d="M29 58C45.0163 58 58 45.0163 58 29C58 12.9837 45.0163 0 29 0C12.9837 0 0 12.9837 0 29C0 45.0163 12.9837 58 29 58Z" fill="white"/>
</mask>
<g mask="url(#mask0_2029_1702)">
<path d="M57.9915 0H-0.00854492V58H57.9915V0Z" fill="#ED9335"/>
<path d="M38.5176 48.7816C36.5754 44.3349 24.4745 43.8692 20.8803 48.6498C19.3951 50.627 19.6676 54.4585 20.3794 58.0001H38.5527C39.2118 54.6958 39.5194 51.084 38.5176 48.7816Z" fill="#BCCEEB"/>
<path d="M31.7943 51.6463C31.7943 51.6463 31.144 50.1612 29.2546 50.5127C27.5673 50.8291 27.3213 52.2791 27.3213 52.2791L28.7185 53.6939L28.1737 57.9912H31.3286L30.441 53.7203L31.8031 51.6375L31.7943 51.6463Z" fill="#379BDB"/>
<path opacity="0.1" d="M23.3406 48.8781C24.1403 52.2878 27.0491 53.9312 27.0491 53.9312L29.6767 51.1806L32.4713 53.7818C35.1516 51.1894 35.7316 50.6621 35.9425 48.4124C36.1446 46.1627 22.6025 45.7409 23.3406 48.8781Z" fill="black"/>
<path d="M23.411 46.4967C22.1104 50.1524 26.8558 53.1227 26.8558 53.1227L29.6855 51.1894L32.3219 53.0085C32.3219 53.0085 37.5419 50.0382 35.5646 45.7761C33.7894 41.9445 24.9313 42.2521 23.4198 46.4967H23.411Z" fill="#CBDAF2"/>
<path d="M27.5675 42.1379C25.8275 42.5158 24.6763 44.1679 24.562 45.864C24.4654 47.1822 24.6763 47.9467 25.4144 48.6761C25.9417 49.2034 26.8117 49.7219 27.7081 50.0031C28.3496 50.1964 29.4657 50.9522 29.6678 50.9522C29.7469 50.9522 30.116 50.627 30.7224 50.3195C31.6011 49.8625 32.8578 49.2649 33.3411 48.307C34.0529 46.9185 34.6857 44.1504 33.3411 43.0695C31.9438 41.9446 29.2284 41.7689 27.5675 42.1379Z" fill="#F7B07C"/>
<path d="M40.8287 10.2467C36.2326 5.34305 28.5871 4.82456 19.9574 8.45396C20.7484 8.50668 22.3653 8.65608 24.4392 8.26942C19.9047 10.2994 14.5441 12.9709 13.3753 18.1558C12.0395 24.0788 13.1908 31.0213 16.5917 31.4343C19.5092 31.7946 23.0771 25.5376 25.0719 26.0912C29.2726 27.26 39.7126 25.9419 42.639 21.7149C43.9571 19.8167 44.0274 16.9518 43.2805 14.4209C42.7883 12.76 41.8568 11.3188 40.8374 10.2379L40.8287 10.2467Z" fill="#2B221C"/>
<path d="M27.1193 13.05C20.0275 14.3946 15.0272 24.2897 16.3278 33.5785C17.3033 40.5385 22.8308 48.1664 31.153 47.5952C39.6421 47.0064 43.869 36.7773 42.7705 28.2267C41.5754 18.9203 37.0408 11.1694 27.1105 13.05H27.1193Z" fill="#FFCB9E"/>
<path opacity="0.3" d="M36.4698 14.7372C33.728 13.9639 30.8895 13.5333 28.0247 13.4893C25.485 13.4454 22.7255 13.3136 20.3528 14.3242C19.0522 14.8778 17.4528 15.6424 16.9695 17.0045C16.574 18.1206 16.0995 19.5881 16.741 20.5636C18.0943 22.6287 20.7395 21.3897 21.7413 20.8887C23.9207 19.7903 33.807 20.5372 38.4207 20.5372C40.3364 20.5372 43.1047 20.2121 42.3138 17.6987C41.6898 15.7127 38.2801 15.2557 36.4698 14.746V14.7372Z" fill="#BF3C1B"/>
<path d="M13.8584 29.7118C10.3784 30.6433 11.7757 35.5821 14.6141 36.5664C15.5281 36.8827 16.4948 36.9267 17.4263 36.8652C17.4438 36.8388 17.4614 36.8124 17.479 36.7773C17.9008 36.1358 17.312 32.5415 17.1011 31.8561C16.5651 30.1512 15.5281 29.2549 13.8496 29.703L13.8584 29.7118Z" fill="#FFCB9E"/>
<path opacity="0.3" d="M15.0799 31.531C14.2978 31.1794 12.3469 31.8122 13.2609 33.2973C13.7442 31.9176 14.6054 32.8228 14.4735 33.7982C14.3857 34.4573 13.6563 34.4661 14.3769 35.3097C14.7723 35.7667 15.5545 35.5997 15.9587 35.3537C17.2242 34.5804 16.0291 31.9616 15.0712 31.531H15.0799Z" fill="#C94614"/>
<path d="M38.2626 10.3961C32.902 7.67185 24.6678 8.38366 20.1684 11.6264C15.5724 14.9394 14.4036 20.8624 14.4036 26.1528C14.4036 27.9718 14.8781 29.2461 16.3105 30.4412C17.9714 31.8209 17.8133 27.6379 17.9714 26.0385C18.3142 22.4706 19.8169 19.5882 23.8417 19.4476C26.5308 19.3509 37.0675 18.8676 39.5457 19.6937C40.899 20.1418 42.7005 20.8273 42.973 18.7358C43.2718 16.4421 42.639 14.0606 41.022 12.3909C40.2487 11.5912 39.3084 10.9322 38.2626 10.3961Z" fill="#2B221C"/>
<path d="M39.4926 11.266C37.4626 9.39421 34.6329 7.9618 31.8911 7.70695C30.4674 7.57513 27.5938 7.62785 26.2317 8.21663C26.6886 8.46269 27.8662 8.70876 28.2617 9.01633C26.2844 9.46452 24.3862 10.0182 22.5232 10.8354C21.952 11.0903 17.2681 14.1748 17.2681 14.1748C18.5687 14.8603 20.1065 14.6054 21.5126 14.3066C23.6568 13.8409 25.7835 13.6563 27.9365 14.1309C29.9401 14.5703 31.7417 15.5457 33.7277 15.9939C33.7893 15.1239 32.928 14.3594 32.5501 13.7706C33.6926 13.753 38.0514 16.4333 38.9477 17.1363C38.7281 16.3894 37.6735 14.8251 37.5592 14.0342C38.6753 14.1924 41.1974 16.3806 41.962 17.6372C42.0411 16.6442 41.9444 15.3436 41.6632 14.4736C41.2501 13.1906 40.4856 12.18 39.4926 11.2572V11.266Z" fill="#45362E"/>
<path d="M37.2084 36.3642C35.6706 36.5136 33.9657 36.5664 31.8039 36.6806C29.8002 36.7861 27.1639 37.1024 24.9581 36.9618C23.35 36.8563 22.682 37.0409 23.7541 38.2624C26.8123 41.7864 28.8072 42.0851 31.4172 42.1642C35.1872 42.2697 36.6372 40.5912 37.1733 38.9215C37.2787 38.5964 37.7269 38.0339 38.2541 37.4803C39.3614 36.3027 39.3526 36.1709 37.2172 36.373L37.2084 36.3642Z" fill="#F7A286"/>
<path d="M24.0354 37.2869C24.0354 37.2869 26.4257 40.8548 31.1097 40.8285C34.1151 40.8109 36.0748 39.9145 36.6109 38.6666C37.1909 37.3045 38.4651 36.7948 38.4651 36.7948C30.3188 38.7193 24.0354 37.2781 24.0354 37.2781V37.2869Z" fill="#8F3935"/>
<path d="M25.7844 37.5682C25.7844 37.5682 25.9514 38.6579 27.6211 39.0445C29.7741 39.5366 32.0765 39.5191 34.4493 39.1412C36.0487 38.8864 36.8044 37.1464 36.8044 37.1464C36.8044 37.1464 32.2435 38.2009 25.7844 37.5594V37.5682Z" fill="#FFF9F0"/>
<path d="M32.2787 39.3434C30.1344 39.4576 28.3505 39.3785 27.2608 38.7985C26.4875 38.3855 26.426 38.8512 26.6017 39.1325C26.6017 39.1325 27.3224 40.6176 30.8902 40.8813C34.3175 41.1361 36.0575 39.2994 35.6532 39.0006C35.2578 38.7019 34.2647 39.2291 32.2787 39.3434Z" fill="#FFF9F0"/>
<path d="M25.7844 37.5682C25.7844 37.5682 25.9162 38.0779 26.2238 38.3327C26.2238 38.3327 34.2384 37.5594 36.1629 38.1306C36.1629 38.1306 36.7165 37.5155 36.8044 37.1552C36.8044 37.1552 31.2153 38.1833 25.7844 37.5682Z" fill="#E8DAC5"/>
<path d="M27.9111 39.0094C30.8199 40.4418 34.2384 39.0973 34.2384 39.0973C30.6266 39.897 27.9111 39.0094 27.9111 39.0094Z" fill="#E8DAC5"/>
<path d="M41.4616 32.2778C40.9079 31.4957 39.7215 31.3287 38.8691 31.3111C37.7618 31.2936 36.2767 31.6627 37.2522 33.2181C37.7707 34.0442 42.1998 34.6945 41.6988 32.7963C41.6461 32.603 41.567 32.4272 41.4616 32.2866V32.2778Z" fill="#FFA073"/>
<path d="M24.8699 32.067C24.1054 31.4079 22.8487 31.5397 21.9787 31.733C20.8451 31.9967 19.439 32.7436 20.8451 34.0706C21.592 34.7824 26.2672 34.3254 25.2478 32.5239C25.1424 32.3394 25.0193 32.1812 24.8699 32.0582V32.067Z" fill="#FFA073"/>
<path d="M23.1654 27.5061C21.3376 26.7415 20.1864 29.8876 21.4342 30.9157C22.0142 30.7488 22.6997 30.8103 23.2445 31.0651C24.4748 30.45 24.5276 28.0685 23.1654 27.5061Z" fill="#261B18"/>
<path opacity="0.3" d="M31.8567 33.1742C30.7845 33.1917 30.3627 32.7172 29.6158 33.1478C28.8688 33.5784 29.9409 34.9581 31.8303 34.8966C33.7109 34.8351 34.5282 33.5784 34.1415 33.1039C33.6845 32.559 33.043 33.1654 31.8655 33.1742H31.8567Z" fill="#B54D26"/>
<path d="M31.575 29.2724C29.5714 29.1054 29.422 33.2182 29.8789 33.5697C31.0038 34.4309 33.3589 33.8245 34.0356 33.1303C34.308 32.8579 33.4908 29.4306 31.575 29.2724Z" fill="#FFDFC2"/>
<path d="M40.7673 27.3919C38.9131 26.311 37.5421 29.791 39.08 30.7752C39.5633 30.4589 40.5388 30.5555 41.0134 30.7752C41.7603 29.9755 41.7691 27.9719 40.7673 27.3919Z" fill="#261B18"/>
<path opacity="0.7" d="M22.2864 28.2794C21.5482 28.5255 22.1107 29.9228 22.8313 29.4131C23.3497 29.044 22.9455 28.0597 22.2864 28.2794Z" fill="#E6D2C3"/>
<path opacity="0.7" d="M39.8096 27.9894C39.0802 28.13 39.4229 29.5273 40.1786 29.1318C40.7235 28.8418 40.4599 27.8664 39.8096 27.9894Z" fill="#E6D2C3"/>
<path d="M24.8174 24.2809C23.464 24.1666 21.7065 24.3248 20.4849 24.773C18.6483 25.4497 19.2283 26.4603 19.4304 26.7327C19.6237 27.0051 19.6852 26.2494 21.7943 25.7309C23.7364 25.2563 25.8104 25.8188 26.0213 25.3003C26.2849 24.6412 25.4765 24.3336 24.8262 24.2809H24.8174Z" fill="#2B221C"/>
<path d="M41.2858 24.1842C40.0291 23.8327 38.254 23.8678 36.9183 24.149C36.268 24.2896 35.4858 24.7202 35.811 25.4145C36.0658 25.9681 38.0783 25.0981 40.0643 25.3969C42.2174 25.722 42.3404 26.5481 42.5161 26.2229C42.6919 25.8978 43.184 24.7114 41.2946 24.1754L41.2858 24.1842Z" fill="#2B221C"/>
<path d="M23.1647 50.873L22.8659 46.936C17.0483 48.2806 15.2556 53.026 14.9832 58H20.7919C20.7919 58 21.0731 51.8573 23.1559 50.873H23.1647Z" fill="#BCCEEB"/>
<path d="M36.4875 46.936L36.1887 50.873C38.2714 51.8573 38.5527 58 38.5527 58H44.3614C44.089 53.026 42.2963 48.2806 36.4787 46.936H36.4875Z" fill="#BCCEEB"/>
</g>
</svg>
